<mxfile host="app.diagrams.net" modified="2024-06-18T16:53:04.979Z" agent="Mozilla/5.0 (Windows NT 10.0; Win64; x64) AppleWebKit/537.36 (KHTML, like Gecko) Chrome/126.0.0.0 Safari/537.36" etag="3oRJz10jNcKhdr0z67mj" version="24.5.5" type="google">
  <diagram name="Página-1" id="I-sjk5y8N6aM05J9gnwq">
    <mxGraphModel grid="1" page="1" gridSize="10" guides="1" tooltips="1" connect="1" arrows="1" fold="1" pageScale="1" pageWidth="827" pageHeight="1169" math="0" shadow="0">
      <root>
        <mxCell id="0" />
        <mxCell id="1" parent="0" />
        <mxCell id="wGYUx2oosRjYCk9fvRU7-1" value="Teams" style="shape=image;verticalLabelPosition=bottom;labelBackgroundColor=default;verticalAlign=top;aspect=fixed;imageAspect=0;image=https://upload.wikimedia.org/wikipedia/commons/thumb/c/c9/Microsoft_Office_Teams_%282018%E2%80%93present%29.svg/2203px-Microsoft_Office_Teams_%282018%E2%80%93present%29.svg.png;fontStyle=1" vertex="1" parent="1">
          <mxGeometry x="660" y="45" width="61.42" height="57.12" as="geometry" />
        </mxCell>
        <mxCell id="wGYUx2oosRjYCk9fvRU7-2" value="&lt;div&gt;Account AWS&lt;/div&gt;" style="points=[[0,0],[0.25,0],[0.5,0],[0.75,0],[1,0],[1,0.25],[1,0.5],[1,0.75],[1,1],[0.75,1],[0.5,1],[0.25,1],[0,1],[0,0.75],[0,0.5],[0,0.25]];outlineConnect=0;gradientColor=none;html=1;whiteSpace=wrap;fontSize=12;fontStyle=0;container=1;pointerEvents=0;collapsible=0;recursiveResize=0;shape=mxgraph.aws4.group;grIcon=mxgraph.aws4.group_account;strokeColor=#CD2264;fillColor=none;verticalAlign=top;align=left;spacingLeft=30;fontColor=#CD2264;dashed=0;" vertex="1" parent="1">
          <mxGeometry x="-170" y="-15" width="700" height="175" as="geometry" />
        </mxCell>
        <mxCell id="wGYUx2oosRjYCk9fvRU7-3" value="&lt;div&gt;EventBridge&lt;/div&gt;" style="sketch=0;points=[[0,0,0],[0.25,0,0],[0.5,0,0],[0.75,0,0],[1,0,0],[0,1,0],[0.25,1,0],[0.5,1,0],[0.75,1,0],[1,1,0],[0,0.25,0],[0,0.5,0],[0,0.75,0],[1,0.25,0],[1,0.5,0],[1,0.75,0]];outlineConnect=0;fontColor=#232F3E;fillColor=#E7157B;strokeColor=#ffffff;dashed=0;verticalLabelPosition=bottom;verticalAlign=top;align=center;html=1;fontSize=12;fontStyle=0;aspect=fixed;shape=mxgraph.aws4.resourceIcon;resIcon=mxgraph.aws4.eventbridge;" vertex="1" parent="wGYUx2oosRjYCk9fvRU7-2">
          <mxGeometry x="390" y="58.5" width="61" height="61" as="geometry" />
        </mxCell>
        <mxCell id="wGYUx2oosRjYCk9fvRU7-4" value="Cloudtrail" style="sketch=0;points=[[0,0,0],[0.25,0,0],[0.5,0,0],[0.75,0,0],[1,0,0],[0,1,0],[0.25,1,0],[0.5,1,0],[0.75,1,0],[1,1,0],[0,0.25,0],[0,0.5,0],[0,0.75,0],[1,0.25,0],[1,0.5,0],[1,0.75,0]];points=[[0,0,0],[0.25,0,0],[0.5,0,0],[0.75,0,0],[1,0,0],[0,1,0],[0.25,1,0],[0.5,1,0],[0.75,1,0],[1,1,0],[0,0.25,0],[0,0.5,0],[0,0.75,0],[1,0.25,0],[1,0.5,0],[1,0.75,0]];outlineConnect=0;fontColor=#232F3E;fillColor=#E7157B;strokeColor=#ffffff;dashed=0;verticalLabelPosition=bottom;verticalAlign=top;align=center;html=1;fontSize=12;fontStyle=0;aspect=fixed;shape=mxgraph.aws4.resourceIcon;resIcon=mxgraph.aws4.cloudtrail;" vertex="1" parent="wGYUx2oosRjYCk9fvRU7-2">
          <mxGeometry x="220" y="57.5" width="63" height="63" as="geometry" />
        </mxCell>
        <mxCell id="wGYUx2oosRjYCk9fvRU7-5" value="Lambda" style="sketch=0;points=[[0,0,0],[0.25,0,0],[0.5,0,0],[0.75,0,0],[1,0,0],[0,1,0],[0.25,1,0],[0.5,1,0],[0.75,1,0],[1,1,0],[0,0.25,0],[0,0.5,0],[0,0.75,0],[1,0.25,0],[1,0.5,0],[1,0.75,0]];outlineConnect=0;fontColor=#232F3E;fillColor=#ED7100;strokeColor=#ffffff;dashed=0;verticalLabelPosition=bottom;verticalAlign=top;align=center;html=1;fontSize=12;fontStyle=0;aspect=fixed;shape=mxgraph.aws4.resourceIcon;resIcon=mxgraph.aws4.lambda;" vertex="1" parent="wGYUx2oosRjYCk9fvRU7-2">
          <mxGeometry x="580" y="60.56" width="56" height="56" as="geometry" />
        </mxCell>
        <mxCell id="wGYUx2oosRjYCk9fvRU7-13" style="edgeStyle=orthogonalEdgeStyle;rounded=0;orthogonalLoop=1;jettySize=auto;html=1;entryX=0;entryY=0.5;entryDx=0;entryDy=0;entryPerimeter=0;" edge="1" parent="wGYUx2oosRjYCk9fvRU7-2" source="wGYUx2oosRjYCk9fvRU7-4" target="wGYUx2oosRjYCk9fvRU7-3">
          <mxGeometry relative="1" as="geometry" />
        </mxCell>
        <mxCell id="wGYUx2oosRjYCk9fvRU7-14" style="edgeStyle=orthogonalEdgeStyle;rounded=0;orthogonalLoop=1;jettySize=auto;html=1;entryX=0;entryY=0.5;entryDx=0;entryDy=0;entryPerimeter=0;" edge="1" parent="wGYUx2oosRjYCk9fvRU7-2" source="wGYUx2oosRjYCk9fvRU7-3" target="wGYUx2oosRjYCk9fvRU7-5">
          <mxGeometry relative="1" as="geometry" />
        </mxCell>
        <mxCell id="wGYUx2oosRjYCk9fvRU7-15" value="Trigger" style="edgeLabel;html=1;align=center;verticalAlign=middle;resizable=0;points=[];" connectable="0" vertex="1" parent="wGYUx2oosRjYCk9fvRU7-14">
          <mxGeometry x="-0.2099" y="3" relative="1" as="geometry">
            <mxPoint as="offset" />
          </mxGeometry>
        </mxCell>
        <mxCell id="wGYUx2oosRjYCk9fvRU7-17" style="edgeStyle=orthogonalEdgeStyle;rounded=0;orthogonalLoop=1;jettySize=auto;html=1;entryX=0;entryY=0.5;entryDx=0;entryDy=0;" edge="1" parent="1" source="wGYUx2oosRjYCk9fvRU7-5" target="wGYUx2oosRjYCk9fvRU7-1">
          <mxGeometry relative="1" as="geometry" />
        </mxCell>
        <mxCell id="wGYUx2oosRjYCk9fvRU7-18" value="Notification" style="edgeLabel;html=1;align=center;verticalAlign=middle;resizable=0;points=[];" connectable="0" vertex="1" parent="wGYUx2oosRjYCk9fvRU7-17">
          <mxGeometry x="0.1581" y="-1" relative="1" as="geometry">
            <mxPoint x="-11" y="-1" as="offset" />
          </mxGeometry>
        </mxCell>
        <mxCell id="wGYUx2oosRjYCk9fvRU7-6" value="" style="swimlane;startSize=0;strokeColor=#FF3399;" vertex="1" parent="1">
          <mxGeometry x="-150" y="30" width="102" height="88" as="geometry" />
        </mxCell>
        <mxCell id="wGYUx2oosRjYCk9fvRU7-7" value="" style="sketch=0;points=[[0,0,0],[0.25,0,0],[0.5,0,0],[0.75,0,0],[1,0,0],[0,1,0],[0.25,1,0],[0.5,1,0],[0.75,1,0],[1,1,0],[0,0.25,0],[0,0.5,0],[0,0.75,0],[1,0.25,0],[1,0.5,0],[1,0.75,0]];outlineConnect=0;fontColor=#232F3E;fillColor=#C925D1;strokeColor=#ffffff;dashed=0;verticalLabelPosition=bottom;verticalAlign=top;align=center;html=1;fontSize=12;fontStyle=0;aspect=fixed;shape=mxgraph.aws4.resourceIcon;resIcon=mxgraph.aws4.rds;" vertex="1" parent="wGYUx2oosRjYCk9fvRU7-6">
          <mxGeometry x="15" y="21" width="27" height="27" as="geometry" />
        </mxCell>
        <mxCell id="wGYUx2oosRjYCk9fvRU7-8" value="" style="sketch=0;points=[[0,0,0],[0.25,0,0],[0.5,0,0],[0.75,0,0],[1,0,0],[0,1,0],[0.25,1,0],[0.5,1,0],[0.75,1,0],[1,1,0],[0,0.25,0],[0,0.5,0],[0,0.75,0],[1,0.25,0],[1,0.5,0],[1,0.75,0]];outlineConnect=0;fontColor=#232F3E;fillColor=#ED7100;strokeColor=#ffffff;dashed=0;verticalLabelPosition=bottom;verticalAlign=top;align=center;html=1;fontSize=12;fontStyle=0;aspect=fixed;shape=mxgraph.aws4.resourceIcon;resIcon=mxgraph.aws4.ecs;" vertex="1" parent="wGYUx2oosRjYCk9fvRU7-6">
          <mxGeometry x="61" y="21" width="28" height="28" as="geometry" />
        </mxCell>
        <mxCell id="wGYUx2oosRjYCk9fvRU7-9" value="" style="sketch=0;points=[[0,0,0],[0.25,0,0],[0.5,0,0],[0.75,0,0],[1,0,0],[0,1,0],[0.25,1,0],[0.5,1,0],[0.75,1,0],[1,1,0],[0,0.25,0],[0,0.5,0],[0,0.75,0],[1,0.25,0],[1,0.5,0],[1,0.75,0]];outlineConnect=0;fontColor=#232F3E;fillColor=#ED7100;strokeColor=#ffffff;dashed=0;verticalLabelPosition=bottom;verticalAlign=top;align=center;html=1;fontSize=12;fontStyle=0;aspect=fixed;shape=mxgraph.aws4.resourceIcon;resIcon=mxgraph.aws4.ec2;" vertex="1" parent="wGYUx2oosRjYCk9fvRU7-6">
          <mxGeometry x="61" y="55" width="28" height="28" as="geometry" />
        </mxCell>
        <mxCell id="wGYUx2oosRjYCk9fvRU7-10" value="" style="sketch=0;points=[[0,0,0],[0.25,0,0],[0.5,0,0],[0.75,0,0],[1,0,0],[0,1,0],[0.25,1,0],[0.5,1,0],[0.75,1,0],[1,1,0],[0,0.25,0],[0,0.5,0],[0,0.75,0],[1,0.25,0],[1,0.5,0],[1,0.75,0]];outlineConnect=0;fontColor=#232F3E;fillColor=#7AA116;strokeColor=#ffffff;dashed=0;verticalLabelPosition=bottom;verticalAlign=top;align=center;html=1;fontSize=12;fontStyle=0;aspect=fixed;shape=mxgraph.aws4.resourceIcon;resIcon=mxgraph.aws4.s3;" vertex="1" parent="wGYUx2oosRjYCk9fvRU7-6">
          <mxGeometry x="13" y="52" width="29" height="29" as="geometry" />
        </mxCell>
        <mxCell id="wGYUx2oosRjYCk9fvRU7-16" value="Services" style="text;html=1;align=center;verticalAlign=middle;resizable=0;points=[];autosize=1;strokeColor=none;fillColor=none;" vertex="1" parent="wGYUx2oosRjYCk9fvRU7-6">
          <mxGeometry x="19" y="-5" width="64" height="26" as="geometry" />
        </mxCell>
        <mxCell id="wGYUx2oosRjYCk9fvRU7-11" style="edgeStyle=orthogonalEdgeStyle;rounded=0;orthogonalLoop=1;jettySize=auto;html=1;entryX=0;entryY=0.5;entryDx=0;entryDy=0;entryPerimeter=0;" edge="1" parent="1" source="wGYUx2oosRjYCk9fvRU7-6" target="wGYUx2oosRjYCk9fvRU7-4">
          <mxGeometry relative="1" as="geometry" />
        </mxCell>
        <mxCell id="wGYUx2oosRjYCk9fvRU7-12" value="Event" style="edgeLabel;html=1;align=center;verticalAlign=middle;resizable=0;points=[];" connectable="0" vertex="1" parent="wGYUx2oosRjYCk9fvRU7-11">
          <mxGeometry x="-0.1077" y="1" relative="1" as="geometry">
            <mxPoint as="offset" />
          </mxGeometry>
        </mxCell>
        <mxCell id="wGYUx2oosRjYCk9fvRU7-36" value="Será necessário a criação de uma&lt;br style=&quot;border-color: var(--border-color);&quot;&gt;&lt;span style=&quot;&quot;&gt;função Lambda sugerindo no código&lt;/span&gt;&lt;br style=&quot;border-color: var(--border-color);&quot;&gt;&lt;span style=&quot;&quot;&gt;&amp;nbsp;o que está sendo alterado e em&lt;/span&gt;&lt;br style=&quot;border-color: var(--border-color);&quot;&gt;&lt;span style=&quot;&quot;&gt;&amp;nbsp;qual serviço. E gerar um código no&lt;/span&gt;&lt;br style=&quot;border-color: var(--border-color);&quot;&gt;&lt;span style=&quot;&quot;&gt;&amp;nbsp;&quot;Test&quot; para métrica no EventBridge&lt;/span&gt;" style="shape=step;perimeter=stepPerimeter;whiteSpace=wrap;html=1;fixedSize=1;direction=south;fillColor=#FFFFFF;strokeColor=#000000;" vertex="1" parent="1">
          <mxGeometry x="340" y="-120" width="200" height="123" as="geometry" />
        </mxCell>
        <mxCell id="wGYUx2oosRjYCk9fvRU7-37" style="edgeStyle=orthogonalEdgeStyle;rounded=0;orthogonalLoop=1;jettySize=auto;html=1;entryX=0.5;entryY=0;entryDx=0;entryDy=0;entryPerimeter=0;dashed=1;" edge="1" parent="1" source="wGYUx2oosRjYCk9fvRU7-1" target="wGYUx2oosRjYCk9fvRU7-5">
          <mxGeometry relative="1" as="geometry">
            <Array as="points">
              <mxPoint x="691" y="26" />
              <mxPoint x="438" y="26" />
            </Array>
          </mxGeometry>
        </mxCell>
        <mxCell id="wGYUx2oosRjYCk9fvRU7-38" value="Vincular Webhook na função" style="edgeLabel;html=1;align=center;verticalAlign=middle;resizable=0;points=[];" connectable="0" vertex="1" parent="wGYUx2oosRjYCk9fvRU7-37">
          <mxGeometry x="-0.2948" y="-3" relative="1" as="geometry">
            <mxPoint x="-37" y="2" as="offset" />
          </mxGeometry>
        </mxCell>
        <mxCell id="wGYUx2oosRjYCk9fvRU7-42" value="Criar um grupo e instalar&lt;div&gt;&amp;nbsp;a função Webhook&amp;nbsp;&lt;/div&gt;&lt;div&gt;para vincular no Lambda&lt;/div&gt;" style="shape=step;perimeter=stepPerimeter;whiteSpace=wrap;html=1;fixedSize=1;direction=west;fillColor=#FFFFFF;strokeColor=#000000;" vertex="1" parent="1">
          <mxGeometry x="740" y="38.5" width="179.88" height="70.12" as="geometry" />
        </mxCell>
        <mxCell id="wGYUx2oosRjYCk9fvRU7-43" value="Configurar o filtro de &lt;br&gt;alterações coletadas no CloudTrail e vincular&lt;br&gt;&amp;nbsp;o Codigo em&lt;br&gt;&amp;nbsp;&quot;Test&quot; no Lambda." style="shape=step;perimeter=stepPerimeter;whiteSpace=wrap;html=1;fixedSize=1;direction=north;" vertex="1" parent="1">
          <mxGeometry x="180" y="130" width="140" height="120" as="geometry" />
        </mxCell>
      </root>
    </mxGraphModel>
  </diagram>
</mxfile>
